<svg xmlns="http://www.w3.org/2000/svg" viewBox="0 0 512 512" role="img" aria-labelledby="title desc">
  <title id="title">Lesson Weaver Codex Pet</title>
  <desc id="desc">A friendly firefly-dragon with lesson-plan wings and a glowing checklist tail.</desc>
  <rect width="512" height="512" rx="96" fill="#111827"/>
  <circle cx="256" cy="242" r="94" fill="#fbbf24" opacity="0.18"/>
  <path d="M154 218c-44-58-58-110-28-132 38-27 101 41 126 111-34-7-66 0-98 21Z" fill="#60a5fa" opacity="0.88"/>
  <path d="M358 218c44-58 58-110 28-132-38-27-101 41-126 111 34-7 66 0 98 21Z" fill="#34d399" opacity="0.88"/>
  <path d="M177 151h68M190 179h66M267 151h56M257 179h65" stroke="#f8fafc" stroke-width="10" stroke-linecap="round" opacity="0.72"/>
  <ellipse cx="256" cy="256" rx="86" ry="104" fill="#f59e0b"/>
  <path d="M207 336c-42 21-58 51-47 73 13 27 67 8 99-52" fill="none" stroke="#fbbf24" stroke-width="22" stroke-linecap="round"/>
  <path d="M295 337c43 20 61 49 51 72-12 28-68 10-101-51" fill="none" stroke="#fbbf24" stroke-width="22" stroke-linecap="round"/>
  <circle cx="224" cy="238" r="13" fill="#111827"/>
  <circle cx="288" cy="238" r="13" fill="#111827"/>
  <path d="M229 282c18 18 39 18 57 0" fill="none" stroke="#111827" stroke-width="10" stroke-linecap="round"/>
  <path d="M171 381c-42 26-77 30-101 11" fill="none" stroke="#fbbf24" stroke-width="12" stroke-linecap="round"/>
  <circle cx="69" cy="389" r="18" fill="#fde68a"/>
  <path d="M58 388l8 8 16-19" fill="none" stroke="#111827" stroke-width="6" stroke-linecap="round" stroke-linejoin="round"/>
  <path d="M256 122l-22-43M256 122l22-43" stroke="#f59e0b" stroke-width="10" stroke-linecap="round"/>
  <circle cx="232" cy="74" r="13" fill="#fde68a"/>
  <circle cx="280" cy="74" r="13" fill="#fde68a"/>
</svg>
